<?xml version="1.0" encoding="UTF-8" standalone="no"?>
<!DOCTYPE svg PUBLIC "-//W3C//DTD SVG 20010904//EN"
        "http://www.w3.org/TR/2001/REC-SVG-20010904/DTD/svg10.dtd">

<svg xmlns="http://www.w3.org/2000/svg"
     width="1.77778in" height="1.77778in"
     viewBox="0 0 128 128">
    <path id="background"
          fill="white" stroke="none" stroke-width="1"
          d="M 58.09,2.85
           C 53.00,6.01 51.26,12.51 54.31,17.82
             56.84,22.20 59.69,20.98 59.98,28.00
             60.08,30.32 60.15,33.63 58.99,35.68
             57.06,39.10 53.04,39.45 53.04,47.00
             53.04,56.58 59.27,54.24 59.94,62.01
             60.98,74.07 53.98,71.06 53.11,80.00
             52.11,90.24 59.26,89.01 59.94,97.00
             60.92,108.45 54.83,105.58 53.28,113.01
             51.34,122.26 59.01,129.09 67.91,125.15
             73.27,122.77 74.36,114.83 71.69,110.18
             70.25,107.68 67.66,106.46 66.59,103.82
             65.95,102.22 65.91,98.74 66.06,97.00
             66.69,89.55 72.13,90.78 72.89,83.00
             73.84,73.28 67.20,73.69 66.15,66.99
             64.25,54.95 72.41,57.11 72.94,48.00
             73.57,37.12 66.41,40.44 66.02,31.00
             65.45,17.12 75.36,21.59 72.72,9.01
             71.19,1.71 64.07,1.15 58.09,2.85 Z
           M 40.09,20.85
           C 35.00,24.01 33.26,30.51 36.31,35.82
             38.84,40.20 41.69,38.98 41.98,46.00
             42.08,48.32 42.15,51.63 40.99,53.68
             39.41,56.47 36.27,57.27 35.28,62.01
             33.34,71.26 41.01,78.09 49.91,74.15
             55.27,71.77 56.36,63.83 53.69,59.18
             51.16,54.80 48.31,56.02 48.02,49.00
             47.94,47.18 47.93,43.84 48.59,42.18
             49.79,39.23 52.69,38.24 54.15,34.91
             57.11,28.14 53.69,20.50 46.00,20.06
             43.50,19.91 42.43,20.19 40.09,20.85 Z
           M 77.23,23.74
           C 71.29,28.02 73.93,37.05 81.96,35.76
             88.42,34.72 87.43,26.91 85.26,24.74
             83.08,22.56 79.87,23.07 77.23,23.74 Z
           M 24.23,40.74
           C 18.29,45.02 20.93,54.05 28.96,52.76
             35.42,51.72 34.43,43.91 32.26,41.74
             30.08,39.56 26.87,40.07 24.23,40.74 Z
           M 95.31,44.02
           C 90.92,48.74 93.86,55.06 99.94,53.67
             104.74,52.57 104.52,46.71 102.40,44.60
             100.29,42.49 97.72,43.14 95.31,44.02 Z
           M 77.04,54.85
           C 72.15,57.78 70.28,63.66 73.17,68.82
             75.63,73.20 78.69,71.82 78.98,79.00
             79.08,81.32 79.15,84.63 77.99,86.68
             76.41,89.47 73.27,90.27 72.28,95.01
             70.34,104.26 78.01,111.09 86.91,107.15
             92.27,104.77 93.36,96.83 90.69,92.18
             88.16,87.80 85.31,89.02 85.02,82.00
             84.94,80.19 84.93,76.81 85.60,75.18
             86.73,72.44 89.37,71.41 90.83,68.82
             94.56,62.16 90.59,54.50 83.00,54.06
             80.49,53.91 79.39,54.20 77.04,54.85 Z
           M 8.60,61.04
           C 5.84,65.08 9.11,67.38 11.70,66.34
             14.61,65.18 14.54,59.00 8.60,61.04 Z
           M 114.60,62.04
           C 111.84,66.08 115.11,68.38 117.70,67.34
             120.61,66.18 120.54,60.00 114.60,62.04 Z
           M 94.15,74.02
           C 86.38,80.91 94.56,90.27 101.85,85.98
             105.60,83.77 105.98,77.37 102.69,74.60
             100.09,72.41 97.01,73.02 94.15,74.02 Z
           M 24.31,77.02
           C 19.92,81.74 22.86,88.06 28.94,86.67
             33.74,85.57 33.52,79.71 31.40,77.60
             29.29,75.49 26.72,76.14 24.31,77.02 Z
           M 43.23,92.74
           C 37.29,97.02 39.93,106.05 47.96,104.76
             54.42,103.72 53.43,95.91 51.26,93.74
             49.08,91.56 45.87,92.07 43.23,92.74 Z"/>
    <path id="Foreground"
          fill="#791f82" stroke="none" stroke-width="1"
          d="M 61.97,4.77
           C 60.28,5.34 59.76,5.21 58.24,6.53
             50.71,13.08 60.33,19.69 61.37,22.22
             61.96,23.66 61.94,25.49 61.96,27.02
             62.02,29.83 62.33,35.29 60.96,37.64
             59.61,39.98 55.29,42.12 55.52,47.02
             55.73,51.40 59.48,53.44 60.95,56.18
             62.24,58.59 61.98,62.31 61.97,65.02
             61.95,67.35 62.08,69.72 60.95,71.85
             59.43,74.69 55.09,77.08 55.55,82.01
             56.18,88.82 61.78,86.23 61.96,96.02
             62.02,98.83 62.33,104.29 60.96,106.64
             59.57,109.04 54.61,111.59 55.64,117.01
             57.23,125.35 68.71,125.35 70.30,117.01
             71.75,109.38 64.16,111.19 63.97,101.01
             63.92,98.20 63.61,92.75 64.98,90.39
             66.33,88.05 70.65,85.91 70.42,81.02
             70.21,76.63 66.45,74.59 64.99,71.85
             63.85,69.72 63.98,67.35 63.97,65.02
             63.95,62.31 63.70,58.59 64.99,56.18
             66.45,53.44 70.21,51.40 70.42,47.02
             70.65,42.12 66.33,39.98 64.98,37.64
             63.61,35.29 63.92,29.83 63.97,27.02
             64.00,25.49 63.97,23.66 64.56,22.22
             65.13,20.84 76.79,10.50 65.92,5.37
             64.14,4.53 63.70,4.82 61.97,4.77 Z
           M 43.97,22.77
           C 38.94,24.45 35.71,28.61 38.44,33.91
             39.86,36.69 42.33,37.69 43.37,40.22
             44.16,42.14 43.98,46.80 43.97,49.02
             43.95,51.23 44.11,53.66 42.96,55.64
             41.61,57.98 37.29,60.12 37.52,65.02
             37.72,69.24 41.67,72.91 45.96,72.26
             49.82,71.68 52.75,67.89 52.39,64.02
             51.98,59.65 48.32,57.96 46.98,55.64
             45.74,53.51 45.97,50.42 45.97,48.02
             45.97,45.93 45.80,42.07 46.56,40.22
             47.60,37.69 50.07,36.69 51.50,33.91
             54.57,27.95 50.11,22.93 43.97,22.77 Z
           M 80.00,24.93
           C 73.57,26.97 75.49,32.90 79.10,33.94
             85.05,35.65 88.70,25.98 80.00,24.93 Z
           M 24.49,43.04
           C 20.70,47.85 25.31,51.55 28.83,50.36
             33.44,48.79 32.24,40.17 24.49,43.04 Z
           M 98.04,45.18
           C 91.99,48.05 96.49,52.98 99.74,51.62
             102.41,50.50 103.36,46.14 98.04,45.18 Z
           M 80.97,55.77
           C 75.94,57.45 72.71,61.61 75.44,66.91
             76.86,69.69 79.33,70.69 80.37,73.22
             81.16,75.14 80.98,79.80 80.97,82.02
             80.95,84.23 81.11,86.66 79.96,88.64
             78.61,90.98 74.29,93.12 74.52,98.02
             74.72,102.24 78.67,105.91 82.96,105.26
             86.82,104.68 89.75,100.89 89.39,97.02
             88.98,92.65 85.32,90.96 83.98,88.64
             82.74,86.51 82.97,83.42 82.97,81.02
             82.97,78.93 82.80,75.07 83.56,73.22
             84.60,70.69 87.07,69.69 88.50,66.91
             91.57,60.95 87.11,55.93 80.97,55.77 Z
           M 12.41,61.44
           C 11.39,60.72 10.13,60.82 9.06,61.17
             7.80,62.06 7.74,63.96 8.80,65.11
             9.61,65.99 11.11,66.33 12.95,64.86
             13.80,63.45 13.20,62.03 12.41,61.44 Z
           M 116.47,62.03
           C 114.87,61.89 113.90,63.63 113.99,64.46
             113.85,65.51 115.27,67.12 116.46,66.99
             118.02,66.94 119.14,65.27 118.95,64.45
             119.11,63.63 117.65,61.87 116.47,62.03 Z
           M 97.00,75.93
           C 90.57,77.97 92.49,83.90 96.10,84.94
             102.05,86.65 105.70,76.98 97.00,75.93 Z
           M 27.04,78.18
           C 20.99,81.05 25.49,85.98 28.74,84.62
             31.41,83.50 32.36,79.14 27.04,78.18 Z
           M 46.00,93.93
           C 39.57,95.97 41.49,101.90 45.10,102.94
             51.05,104.65 54.70,94.98 46.00,93.93 Z"/>
</svg>
