<?xml version="1.0" encoding="UTF-8"?>
<svg xmlns="http://www.w3.org/2000/svg" width="16px" height="16px" viewBox="0 0 16 16" version="1.1">
    <g id="surface1">
        <path style=" stroke:none;fill-rule:nonzero;fill:rgb(100%,100%,100%);fill-opacity:1;"
              d="M 7.261719 0.355469 C 6.625 0.75 6.40625 1.5625 6.789062 2.226562 C 7.105469 2.773438 7.460938 2.621094 7.496094 3.5 C 7.511719 3.789062 7.519531 4.203125 7.375 4.460938 C 7.132812 4.886719 6.628906 4.929688 6.628906 5.875 C 6.628906 7.074219 7.410156 6.78125 7.492188 7.75 C 7.621094 9.257812 6.746094 8.882812 6.640625 10 C 6.515625 11.28125 7.40625 11.125 7.492188 12.125 C 7.613281 13.554688 6.855469 13.199219 6.660156 14.125 C 6.417969 15.28125 7.375 16.136719 8.488281 15.644531 C 9.160156 15.347656 9.296875 14.355469 8.960938 13.773438 C 8.78125 13.460938 8.457031 13.308594 8.324219 12.976562 C 8.242188 12.777344 8.238281 12.34375 8.257812 12.125 C 8.335938 11.195312 9.015625 11.347656 9.109375 10.375 C 9.230469 9.160156 8.398438 9.210938 8.269531 8.375 C 8.03125 6.867188 9.050781 7.140625 9.117188 6 C 9.195312 4.640625 8.300781 5.054688 8.253906 3.875 C 8.179688 2.140625 9.421875 2.699219 9.089844 1.125 C 8.898438 0.214844 8.007812 0.144531 7.261719 0.355469 Z M 5.011719 2.605469 C 4.375 3 4.15625 3.8125 4.539062 4.476562 C 4.855469 5.023438 5.210938 4.871094 5.246094 5.75 C 5.261719 6.039062 5.269531 6.453125 5.125 6.710938 C 4.925781 7.058594 4.535156 7.160156 4.410156 7.75 C 4.167969 8.90625 5.125 9.761719 6.238281 9.269531 C 6.910156 8.972656 7.046875 7.980469 6.710938 7.398438 C 6.394531 6.851562 6.039062 7.003906 6.003906 6.125 C 5.992188 5.898438 5.992188 5.480469 6.074219 5.273438 C 6.222656 4.902344 6.585938 4.78125 6.769531 4.363281 C 7.140625 3.515625 6.710938 2.5625 5.75 2.507812 C 5.4375 2.488281 5.304688 2.523438 5.011719 2.605469 Z M 9.652344 2.96875 C 8.910156 3.503906 9.242188 4.632812 10.246094 4.46875 C 11.050781 4.339844 10.929688 3.363281 10.65625 3.09375 C 10.386719 2.820312 9.984375 2.882812 9.652344 2.96875 Z M 3.027344 5.09375 C 2.285156 5.628906 2.617188 6.757812 3.621094 6.59375 C 4.425781 6.464844 4.304688 5.488281 4.03125 5.21875 C 3.761719 4.945312 3.359375 5.007812 3.027344 5.09375 Z M 11.914062 5.503906 C 11.363281 6.09375 11.734375 6.882812 12.492188 6.707031 C 13.09375 6.570312 13.066406 5.839844 12.800781 5.574219 C 12.535156 5.3125 12.214844 5.390625 11.914062 5.503906 Z M 9.628906 6.855469 C 9.019531 7.222656 8.785156 7.957031 9.144531 8.601562 C 9.453125 9.148438 9.835938 8.976562 9.871094 9.875 C 9.886719 10.164062 9.894531 10.578125 9.75 10.835938 C 9.550781 11.183594 9.160156 11.285156 9.035156 11.875 C 8.792969 13.03125 9.75 13.886719 10.863281 13.394531 C 11.535156 13.097656 11.671875 12.105469 11.335938 11.523438 C 11.019531 10.976562 10.664062 11.128906 10.628906 10.25 C 10.617188 10.023438 10.617188 9.601562 10.699219 9.398438 C 10.839844 9.054688 11.171875 8.925781 11.355469 8.601562 C 11.820312 7.769531 11.324219 6.8125 10.375 6.757812 C 10.0625 6.738281 9.921875 6.773438 9.628906 6.855469 Z M 1.074219 7.628906 C 0.730469 8.136719 1.140625 8.421875 1.460938 8.292969 C 1.828125 8.148438 1.816406 7.375 1.074219 7.628906 Z M 14.324219 7.753906 C 13.980469 8.261719 14.390625 8.546875 14.710938 8.417969 C 15.078125 8.273438 15.066406 7.5 14.324219 7.753906 Z M 11.769531 9.253906 C 10.796875 10.113281 11.820312 11.285156 12.730469 10.746094 C 13.199219 10.472656 13.246094 9.671875 12.835938 9.324219 C 12.511719 9.050781 12.125 9.128906 11.769531 9.253906 Z M 3.039062 9.628906 C 2.488281 10.21875 2.859375 11.007812 3.617188 10.832031 C 4.21875 10.695312 4.191406 9.964844 3.925781 9.699219 C 3.660156 9.4375 3.339844 9.515625 3.039062 9.628906 Z M 5.402344 11.59375 C 4.660156 12.128906 4.992188 13.257812 5.996094 13.09375 C 6.800781 12.964844 6.679688 11.988281 6.40625 11.71875 C 6.136719 11.445312 5.734375 11.507812 5.402344 11.59375 Z M 5.402344 11.59375 "/>
        <path style=" stroke:none;fill-rule:nonzero;fill:rgb(47.45098%,12.156863%,50.980392%);fill-opacity:1;"
              d="M 7.746094 0.597656 C 7.535156 0.667969 7.46875 0.652344 7.28125 0.816406 C 6.339844 1.636719 7.542969 2.460938 7.671875 2.777344 C 7.746094 2.957031 7.742188 3.1875 7.746094 3.378906 C 7.753906 3.730469 7.792969 4.410156 7.621094 4.703125 C 7.453125 4.996094 6.910156 5.265625 6.941406 5.878906 C 6.964844 6.425781 7.433594 6.679688 7.617188 7.023438 C 7.78125 7.324219 7.746094 7.789062 7.746094 8.128906 C 7.742188 8.417969 7.761719 8.714844 7.617188 8.980469 C 7.429688 9.335938 6.886719 9.636719 6.945312 10.25 C 7.023438 11.101562 7.722656 10.777344 7.746094 12.003906 C 7.753906 12.355469 7.792969 13.035156 7.621094 13.328125 C 7.445312 13.628906 6.828125 13.949219 6.953125 14.625 C 7.152344 15.667969 8.589844 15.667969 8.789062 14.625 C 8.96875 13.671875 8.019531 13.898438 7.996094 12.625 C 7.988281 12.273438 7.953125 11.59375 8.121094 11.296875 C 8.292969 11.007812 8.832031 10.738281 8.800781 10.128906 C 8.777344 9.578125 8.304688 9.324219 8.125 8.980469 C 7.980469 8.714844 7.996094 8.417969 7.996094 8.128906 C 7.992188 7.789062 7.960938 7.324219 8.125 7.023438 C 8.304688 6.679688 8.777344 6.425781 8.800781 5.878906 C 8.832031 5.265625 8.292969 4.996094 8.121094 4.703125 C 7.953125 4.410156 7.988281 3.730469 7.996094 3.378906 C 8 3.1875 7.996094 2.957031 8.070312 2.777344 C 8.140625 2.605469 9.597656 1.3125 8.238281 0.671875 C 8.015625 0.566406 7.960938 0.601562 7.746094 0.597656 Z M 5.496094 2.847656 C 4.867188 3.054688 4.464844 3.578125 4.804688 4.238281 C 4.984375 4.585938 5.292969 4.710938 5.421875 5.027344 C 5.519531 5.265625 5.496094 5.851562 5.496094 6.128906 C 5.492188 6.402344 5.515625 6.707031 5.371094 6.953125 C 5.203125 7.246094 4.660156 7.515625 4.691406 8.128906 C 4.714844 8.65625 5.207031 9.113281 5.746094 9.03125 C 6.226562 8.960938 6.59375 8.484375 6.546875 8.003906 C 6.496094 7.457031 6.039062 7.246094 5.871094 6.953125 C 5.71875 6.6875 5.746094 6.300781 5.746094 6.003906 C 5.746094 5.742188 5.726562 5.257812 5.820312 5.027344 C 5.949219 4.710938 6.257812 4.585938 6.4375 4.238281 C 6.820312 3.492188 6.265625 2.867188 5.496094 2.847656 Z M 10 3.117188 C 9.195312 3.371094 9.4375 4.113281 9.886719 4.242188 C 10.632812 4.457031 11.085938 3.246094 10 3.117188 Z M 3.0625 5.378906 C 2.585938 5.980469 3.164062 6.445312 3.605469 6.296875 C 4.179688 6.097656 4.03125 5.019531 3.0625 5.378906 Z M 12.253906 5.648438 C 11.5 6.007812 12.0625 6.621094 12.46875 6.453125 C 12.800781 6.3125 12.921875 5.765625 12.253906 5.648438 Z M 10.121094 6.972656 C 9.492188 7.179688 9.089844 7.703125 9.429688 8.363281 C 9.609375 8.710938 9.917969 8.835938 10.046875 9.152344 C 10.144531 9.390625 10.121094 9.976562 10.121094 10.253906 C 10.117188 10.527344 10.140625 10.832031 9.996094 11.078125 C 9.828125 11.371094 9.285156 11.640625 9.316406 12.253906 C 9.339844 12.78125 9.832031 13.238281 10.371094 13.15625 C 10.851562 13.085938 11.21875 12.609375 11.171875 12.128906 C 11.121094 11.582031 10.664062 11.371094 10.496094 11.078125 C 10.34375 10.8125 10.371094 10.425781 10.371094 10.128906 C 10.371094 9.867188 10.351562 9.382812 10.445312 9.152344 C 10.574219 8.835938 10.882812 8.710938 11.0625 8.363281 C 11.445312 7.617188 10.890625 6.992188 10.121094 6.972656 Z M 1.550781 7.679688 C 1.421875 7.589844 1.265625 7.601562 1.132812 7.644531 C 0.976562 7.757812 0.96875 7.996094 1.101562 8.140625 C 1.203125 8.25 1.390625 8.292969 1.617188 8.109375 C 1.726562 7.929688 1.648438 7.753906 1.550781 7.679688 Z M 14.558594 7.753906 C 14.359375 7.734375 14.238281 7.953125 14.25 8.058594 C 14.230469 8.1875 14.410156 8.390625 14.558594 8.375 C 14.753906 8.367188 14.890625 8.160156 14.867188 8.054688 C 14.890625 7.953125 14.707031 7.734375 14.558594 7.753906 Z M 12.125 9.492188 C 11.320312 9.746094 11.5625 10.488281 12.011719 10.617188 C 12.757812 10.832031 13.210938 9.621094 12.125 9.492188 Z M 3.378906 9.773438 C 2.625 10.132812 3.1875 10.746094 3.59375 10.578125 C 3.925781 10.4375 4.046875 9.890625 3.378906 9.773438 Z M 5.75 11.742188 C 4.945312 11.996094 5.1875 12.738281 5.636719 12.867188 C 6.382812 13.082031 6.835938 11.871094 5.75 11.742188 Z M 5.75 11.742188 "/>
    </g>
</svg>
